<svg width="953" height="794" viewBox="0 0 953 794" fill="none" xmlns="http://www.w3.org/2000/svg">
<path fill-rule="evenodd" clip-rule="evenodd" d="M871.057 330.443L763.525 395.055C759.179 397.666 761.03 404.341 766.1 404.341H860.136C910.946 404.341 952.136 445.531 952.136 496.341C952.136 547.151 910.946 588.341 860.136 588.341H733.466C731.057 588.341 728.995 590.061 728.516 592.422C725.502 607.282 721.087 622.077 715.202 636.644C663.479 764.661 517.772 826.51 389.754 774.788C388.639 774.337 387.529 773.88 386.424 773.415C385.636 773.117 384.85 772.81 384.065 772.493L68.8223 645.126C12.4946 622.369 -14.7191 558.257 8.03876 501.93C30.7966 445.602 94.9081 418.388 151.236 441.146L228.585 472.397C229.328 472.697 230.137 472.142 230.137 471.341V95.3407C230.137 44.5305 271.326 3.34073 322.137 3.34073C372.947 3.34073 414.137 44.5305 414.137 95.3407V214.415C414.137 219.53 420.909 221.345 423.467 216.915L522.136 46.0153C547.541 2.01241 603.807 -13.0641 647.81 12.341C691.813 37.7461 706.889 94.0125 681.484 138.015L610.109 261.641C607.528 266.112 612.59 271.086 617.014 268.427L776.29 172.724C819.843 146.555 876.364 160.648 902.533 204.2C928.702 247.753 914.61 304.274 871.057 330.443Z" fill="#2545ED"/>
<path fill-rule="evenodd" clip-rule="evenodd" d="M409 472C421.703 472 432 455.882 432 436C432 416.118 421.703 400 409 400C396.298 400 386 416.118 386 436C386 455.882 396.298 472 409 472ZM521 472C533.703 472 544 455.882 544 436C544 416.118 533.703 400 521 400C508.297 400 498 416.118 498 436C498 455.882 508.297 472 521 472ZM560.488 506.847C558.739 508.116 557.204 509.742 556.001 511.697C514.879 578.521 418.979 581.928 373.218 518.19L367.835 510.692C362.36 503.065 351.738 501.322 344.111 506.797C336.484 512.273 334.741 522.894 340.216 530.521L345.599 538.019C399.867 613.606 507.982 617.083 567.905 552.074C582.253 571.263 605.316 582.929 630.288 582.211C639.672 581.941 647.062 574.114 646.792 564.729C646.522 555.345 638.696 547.955 629.311 548.225C610.854 548.755 594.301 536.936 588.811 519.306L587.461 514.974C584.67 506.01 575.14 501.006 566.176 503.798C564.037 504.464 562.124 505.513 560.488 506.847Z" fill="white"/>
</svg>
