<svg id="Layer_1" data-name="Layer 1" xmlns="http://www.w3.org/2000/svg" viewBox="0 0 646 250"><defs><style>.cls-1{fill:#040000;}.cls-2{fill:#aeaca8;}.cls-3{fill:#e63c26;}.cls-4{fill:#f9c200;}.cls-5{fill:#557abd;}.cls-6{fill:#07a346;}.cls-7{fill:#fff;}</style></defs><path class="cls-1" d="M622.07,220.7H23.93A24,24,0,0,1,0,196.78V53.22A24,24,0,0,1,23.93,29.3H622.07A24,24,0,0,1,646,53.22V196.78a24,24,0,0,1-23.93,23.92Z"/><path class="cls-2" d="M622.07,29.3H23.93A24,24,0,0,0,0,53.22V196.78A24,24,0,0,0,23.93,220.7H622.07A24,24,0,0,0,646,196.78V53.22A24,24,0,0,0,622.07,29.3Zm0,3.82a20.12,20.12,0,0,1,20.1,20.1V196.78a20.12,20.12,0,0,1-20.1,20.1H23.93a20.12,20.12,0,0,1-20.1-20.1V53.22a20.12,20.12,0,0,1,20.1-20.1H622.07"/><path class="cls-3" d="M99.14,122.24,48.19,176.32a0,0,0,0,0,0,0,13.78,13.78,0,0,0,20.27,8.3l.16-.1L126,151.46,99.14,122.24Z"/><path class="cls-4" d="M150.68,113l-.05,0L125.87,98.65,98,123.47l28,28,24.63-14.21a13.78,13.78,0,0,0,.08-24.21Z"/><path class="cls-5" d="M48.19,73.69a13.32,13.32,0,0,0-.47,3.54v95.55a13.32,13.32,0,0,0,.47,3.54l52.7-52.69L48.19,73.69Z"/><path class="cls-6" d="M99.51,125l26.37-26.36L68.6,65.43a13.78,13.78,0,0,0-20.41,8.25h0L99.51,125Z"/><path class="cls-7" d="M205.37,109.47a20.6,20.6,0,0,1,0-35.77A20.55,20.55,0,0,1,215.72,71,21.12,21.12,0,0,1,224,72.6a18.3,18.3,0,0,1,6.44,4.45l-4.18,4.19a13.47,13.47,0,0,0-10.57-4.52,14.74,14.74,0,0,0-7.21,1.85,13.74,13.74,0,0,0-5.34,5.25,15.19,15.19,0,0,0-2,7.76,15,15,0,0,0,2,7.79,14.1,14.1,0,0,0,5.34,5.23,14.68,14.68,0,0,0,7.24,1.84,13.67,13.67,0,0,0,10.12-3.91A9.83,9.83,0,0,0,228,99.45a15.14,15.14,0,0,0,1.18-4.13H215.67V90h19.15a18.74,18.74,0,0,1,.33,3.19A21.37,21.37,0,0,1,234,100.3a16.29,16.29,0,0,1-3.66,6,17.56,17.56,0,0,1-6.33,4.38,21.5,21.5,0,0,1-8.25,1.51A20.65,20.65,0,0,1,205.37,109.47Z"/><path class="cls-7" d="M246.87,110.21a13.71,13.71,0,0,1-5.23-5.37,16.34,16.34,0,0,1,0-15.18,13.71,13.71,0,0,1,5.23-5.37,14.82,14.82,0,0,1,7.59-2,14.56,14.56,0,0,1,7.54,2,14,14,0,0,1,5.23,5.39,16.24,16.24,0,0,1,0,15.13,13.77,13.77,0,0,1-5.2,5.37,15.71,15.71,0,0,1-15.16,0Zm11.94-4.65a8.66,8.66,0,0,0,3.19-3.3,11,11,0,0,0,0-10,8.66,8.66,0,0,0-3.19-3.3,8.48,8.48,0,0,0-4.35-1.16,8.59,8.59,0,0,0-7.59,4.46,11,11,0,0,0,0,10,8.73,8.73,0,0,0,11.94,3.3Z"/><path class="cls-7" d="M280.27,110.21a13.71,13.71,0,0,1-5.23-5.37,16.34,16.34,0,0,1,0-15.18,13.71,13.71,0,0,1,5.23-5.37,14.84,14.84,0,0,1,7.59-2,14.56,14.56,0,0,1,7.54,2,14,14,0,0,1,5.23,5.39,16.24,16.24,0,0,1,0,15.13,13.77,13.77,0,0,1-5.2,5.37,14.69,14.69,0,0,1-7.57,2A14.84,14.84,0,0,1,280.27,110.21Zm11.94-4.65a8.66,8.66,0,0,0,3.19-3.3,11,11,0,0,0,0-10,8.66,8.66,0,0,0-3.19-3.3,8.48,8.48,0,0,0-4.35-1.16,8.59,8.59,0,0,0-7.59,4.46,11,11,0,0,0,0,10,8.55,8.55,0,0,0,7.59,4.45A8.47,8.47,0,0,0,292.21,105.56Z"/><path class="cls-7" d="M312.21,121.71a11.51,11.51,0,0,1-4.54-5.64l5.51-2.31a7.69,7.69,0,0,0,2.89,3.63,8,8,0,0,0,4.65,1.38,7.85,7.85,0,0,0,6.1-2.4,9.6,9.6,0,0,0,2.2-6.74v-2.7h-.33a9.39,9.39,0,0,1-3.68,3.2,11.65,11.65,0,0,1-5.28,1.15,12.54,12.54,0,0,1-6.58-1.8,13,13,0,0,1-4.79-5.09,16.82,16.82,0,0,1,0-15.1,13.26,13.26,0,0,1,4.79-5.13,12.38,12.38,0,0,1,6.58-1.82A11.45,11.45,0,0,1,325,83.52a9.55,9.55,0,0,1,3.71,3.22H329V83.22h5.67V109.8a15.85,15.85,0,0,1-1.76,7.73A11.67,11.67,0,0,1,328,122.4a15.54,15.54,0,0,1-7.29,1.65A14.62,14.62,0,0,1,312.21,121.71ZM324.9,104.8a8.09,8.09,0,0,0,3-3.11A9.88,9.88,0,0,0,329,96.84a10.18,10.18,0,0,0-1.12-4.94,7.83,7.83,0,0,0-3-3.11,8.22,8.22,0,0,0-4.13-1.06,8.32,8.32,0,0,0-4.15,1.06,7.64,7.64,0,0,0-3,3.11,10.18,10.18,0,0,0-1.13,4.94,10.05,10.05,0,0,0,1.13,4.88,7.64,7.64,0,0,0,3,3.11,8.32,8.32,0,0,0,4.15,1.06A8,8,0,0,0,324.9,104.8Z"/><path class="cls-7" d="M341.74,71.88h5.94v39.4h-5.94Z"/><path class="cls-7" d="M368.64,112.17a13.37,13.37,0,0,0,7.43-2,15.7,15.7,0,0,0,4.68-4.46l-4.95-3.3a8.3,8.3,0,0,1-7.16,4,7.46,7.46,0,0,1-7.05-4.4L381,94l-.67-1.65A16.8,16.8,0,0,0,376,86a11.35,11.35,0,0,0-8.1-2.91,13.13,13.13,0,0,0-11.83,7,14.84,14.84,0,0,0-1.88,7.54,14.31,14.31,0,0,0,1.88,7.32,13.62,13.62,0,0,0,5.17,5.29,14.66,14.66,0,0,0,7.38,1.93Zm-8.09-15a8.15,8.15,0,0,1,1.1-4.57,7.91,7.91,0,0,1,3-2.92,7.3,7.3,0,0,1,3.52-1,6.75,6.75,0,0,1,3.36.83,4.71,4.71,0,0,1,2,2.26Zm38,14.09h6.17V96h7.49a13.63,13.63,0,0,0,6.44-1.54,12.66,12.66,0,0,0,4.68-4.3,12.23,12.23,0,0,0,0-12.44,12.55,12.55,0,0,0-4.68-4.29,13.52,13.52,0,0,0-6.44-1.54H398.51Zm6.17-21.14V77.76h7.6a6.53,6.53,0,0,1,3.52.88A6,6,0,0,1,418.06,81a6.13,6.13,0,0,1,0,6,6.17,6.17,0,0,1-2.26,2.31,6.64,6.64,0,0,1-3.52.93Zm25.64,21.14h6.06V71.87h-6.06Zm22,.89A10.12,10.12,0,0,0,457.4,111a9.52,9.52,0,0,0,3.41-3h.28v3.35H467V93.78c0-3.64-1.1-6.44-3.3-8.48s-5.34-3-9.41-3a15.22,15.22,0,0,0-6.61,1.43,12.65,12.65,0,0,0-4.84,4L447.1,91a7.87,7.87,0,0,1,3.09-2.58,9.1,9.1,0,0,1,4-.94,7.51,7.51,0,0,1,5,1.6,5.4,5.4,0,0,1,1.93,4.24v1.43a15.64,15.64,0,0,0-3.14-1,22.24,22.24,0,0,0-4.46-.44,12.9,12.9,0,0,0-8.26,2.53,8.23,8.23,0,0,0-3.3,6.89,9.25,9.25,0,0,0,1.32,4.9,8.39,8.39,0,0,0,3.69,3.35,11.41,11.41,0,0,0,5.39,1.22Zm1.05-5a5.81,5.81,0,0,1-3.85-1.27,3.92,3.92,0,0,1-1.49-3.14,4.5,4.5,0,0,1,1.6-3.52c1-.88,2.75-1.32,5-1.32a14.82,14.82,0,0,1,3.52.44,10.85,10.85,0,0,1,2.92,1.15,7.51,7.51,0,0,1-1,3.8,7.9,7.9,0,0,1-2.76,2.81,7.37,7.37,0,0,1-4,1Z"/><path class="cls-7" d="M480.93,109.74,469.2,83.22h6.61l8,19.15h.28l7.76-19.15h6.55l-17.34,40h-6.33Z"/><path class="cls-7" d="M513.34,99.61c-3.41,0-5.5-4.46-5.5-12.33S509.93,75,513.34,75s5.51,4.41,5.51,12.28-2.09,12.33-5.51,12.33Zm15.91-15h-5.34c-.6-9.31-4.62-15-10.57-15-6.44,0-10.68,6.72-10.68,17.62S506.9,105,513.34,105C519.4,105,523.47,99,524,89.32h5.28v23.84h5.29V66.75h-5.29Zm10-18.83v49.66h5.39V65.81Zm30.92,4h-5.73V78c0,9.31-4.85,18.89-12.61,22.68l3.58,4.52c5.67-2.92,9.75-8.7,12-15.75,2.14,6.66,6.16,12.11,11.78,14.92l3.36-4.57c-7.6-3.52-12.33-12.55-12.33-21.8ZM587.7,65.7V82.05H577.07v4.63H587.7v28.9h5.72V65.7Z"/><path class="cls-7" d="M225.37,159.55H219.5v19.64h-4.28V141.53h4.28V156h5.87v3.54Zm-29.18,6.82a91.11,91.11,0,0,0,15.9-1.2l.46,3.54A92.81,92.81,0,0,1,195,170h-3.08V145.11h17.48v3.49h-13.2v17.77Z"/><path class="cls-7" d="M238.09,150.06c0,2.66,3.46,4.2,8.78,4.2s8.74-1.54,8.74-4.2-3.45-4.2-8.74-4.2-8.78,1.54-8.78,4.2Zm.29,24.89h21.81v3.49H234.06V167.33h4.32V175Zm-4.82-24.89c0-4.7,5.24-7.66,13.31-7.66s13.32,3,13.32,7.66-5.28,7.66-13.32,7.66-13.31-3-13.31-7.66Zm30.38,10.2v3.49H249.37v7.12H245v-7.12H229.85v-3.49Z"/><polygon class="cls-7" points="301.36 171.2 301.36 174.74 267.31 174.74 267.31 171.2 282.13 171.2 282.13 164.79 271.43 164.79 271.43 152.68 293.07 152.68 293.07 147.65 271.35 147.65 271.35 144.19 297.32 144.19 297.32 156.09 275.63 156.09 275.63 161.34 298.15 161.34 298.15 164.79 286.41 164.79 286.41 171.2 301.36 171.2 301.36 171.2"/><path class="cls-7" d="M336.73,162.75H310.68V144.86h25.76v3.49H315v11h21.76v3.45Zm3.87,8v3.53H306.52v-3.53Z"/></svg>